<?xml version="1.0" encoding="UTF-8"?>
<!-- Generated by jsxcad -->
<!DOCTYPE svg PUBLIC "-//W3C//DTD SVG 1.1 Tiny//EN" "http://www.w3.org/Graphics/SVG/1.1/DTD/svg11-tiny.dtd">
<svg baseProfile="tiny" height="60.00000mm" width="149.89021mm" viewBox="-0.00066 -0.00000 149.89021 60.00000" version="1.1" stroke="black" stroke-width=".1" fill="none" xmlns="http://www.w3.org/2000/svg">
<path fill="#000000" stroke="#000000" d="M-0.00066 6.59424 L0.26012 5.53858 L0.43397 4.83481 L0.93449 3.88102 L1.26817 3.24516 L1.98953 2.43008 L2.47043 1.88669 L3.36792 1.26786 L3.96624 0.85530 L4.97805 0.47244 L5.65259 0.21719 L6.72770 0.08688 L7.44444 0.00000 L88.44444 0.00000 L142.44444 0.00000 L143.51956 0.13032 L144.23630 0.21719 L145.24811 0.60006 L145.92265 0.85530 L146.82013 1.47414 L147.41846 1.88669 L148.13981 2.70177 L148.62072 3.24516 L149.12124 4.19895 L149.45492 4.83481 L149.71570 5.89047 L149.88955 6.59424 L149.88955 34.68115 L149.88955 53.40576 L149.62877 54.46142 L149.45492 55.16519 L148.95440 56.11898 L148.62072 56.75484 L147.89936 57.56992 L147.41846 58.11331 L146.52097 58.73214 L145.92265 59.14470 L144.91084 59.52756 L144.23630 59.78281 L143.16119 59.91312 L142.44444 60.00000 L61.44444 60.00000 L7.44444 60.00000 L6.36933 59.86968 L5.65259 59.78281 L4.64078 59.39994 L3.96624 59.14470 L3.06875 58.52586 L2.47043 58.11331 L1.74908 57.29823 L1.26817 56.75484 L0.76765 55.80105 L0.43397 55.16519 L0.17319 54.10953 L-0.00066 53.40576 L-0.00066 25.31885 z M64.44444 42.10487 L64.44444 17.82966 L64.33804 17.63520 L62.49293 15.13222 L60.35682 12.92784 L57.96614 11.04121 L55.30925 9.46781 L52.50317 8.27753 L49.54398 7.46460 L46.47608 7.05105 L43.41281 7.05105 L40.34491 7.46460 L37.38572 8.27753 L34.57964 9.46781 L31.92275 11.04121 L29.53207 12.92784 L27.39596 15.13222 L25.55084 17.63520 L24.07431 20.33370 L22.97676 23.18671 L22.26169 26.19310 L21.95766 29.22056 L22.05916 32.29426 L22.57243 35.33788 L23.48339 38.27182 L24.78220 41.06724 L26.41568 43.62663 L28.41985 45.99805 L30.67126 48.03541 L33.20186 49.77655 L35.94741 51.16727 L38.86235 52.18126 L41.89135 52.79646 L44.94444 53.00000 L47.99754 52.79646 L51.02654 52.18126 L53.94148 51.16727 L56.68703 49.77655 L59.21763 48.03541 L61.46904 45.99805 L63.47321 43.62663 z"/>
<path fill="#000000" stroke="#000000" d="M21.95766 29.22056 L22.26169 26.19310 L22.97676 23.18671 L24.07431 20.33370 L25.55084 17.63520 L27.39596 15.13222 L29.53207 12.92784 L31.92275 11.04121 L34.57964 9.46781 L37.38572 8.27753 L40.34491 7.46460 L43.41281 7.05105 L46.47608 7.05105 L49.54398 7.46460 L52.50317 8.27753 L55.30925 9.46781 L57.96614 11.04121 L60.35682 12.92784 L62.49293 15.13222 L64.33804 17.63520 L64.44444 17.82966 L64.44444 42.10487 L63.47321 43.62663 L61.46904 45.99805 L59.21763 48.03541 L56.68703 49.77655 L53.94148 51.16727 L51.02654 52.18126 L47.99754 52.79646 L44.94444 53.00000 L41.89135 52.79646 L38.86235 52.18126 L35.94741 51.16727 L33.20186 49.77655 L30.67126 48.03541 L28.41985 45.99805 L26.41568 43.62663 L24.78220 41.06724 L23.48339 38.27182 L22.57243 35.33788 L22.05916 32.29426 z"/>
</svg>